<mxfile host="app.diagrams.net" modified="2024-06-04T18:17:20.740Z" agent="Mozilla/5.0 (Windows NT 10.0; Win64; x64) AppleWebKit/537.36 (KHTML, like Gecko) Chrome/125.0.0.0 Safari/537.36" etag="NObHwA1G75ydBklhcm-2" version="24.4.13" type="device">
  <diagram name="Page-1" id="x2Vcv8tRHThUodlK4XlS">
    <mxGraphModel dx="2560" dy="928" grid="1" gridSize="10" guides="1" tooltips="1" connect="1" arrows="1" fold="1" page="1" pageScale="1" pageWidth="827" pageHeight="1169" math="0" shadow="0">
      <root>
        <mxCell id="0" />
        <mxCell id="1" parent="0" />
        <mxCell id="2zl7KjaIhyBqIGTqFVHy-1" value="" style="shape=umlLifeline;perimeter=lifelinePerimeter;whiteSpace=wrap;html=1;container=1;dropTarget=0;collapsible=0;recursiveResize=0;outlineConnect=0;portConstraint=eastwest;newEdgeStyle={&quot;edgeStyle&quot;:&quot;elbowEdgeStyle&quot;,&quot;elbow&quot;:&quot;vertical&quot;,&quot;curved&quot;:0,&quot;rounded&quot;:0};participant=umlActor;" vertex="1" parent="1">
          <mxGeometry x="-70" y="10" width="20" height="890" as="geometry" />
        </mxCell>
        <mxCell id="2zl7KjaIhyBqIGTqFVHy-2" value="" style="html=1;points=[];perimeter=orthogonalPerimeter;outlineConnect=0;targetShapes=umlLifeline;portConstraint=eastwest;newEdgeStyle={&quot;edgeStyle&quot;:&quot;elbowEdgeStyle&quot;,&quot;elbow&quot;:&quot;vertical&quot;,&quot;curved&quot;:0,&quot;rounded&quot;:0};" vertex="1" parent="2zl7KjaIhyBqIGTqFVHy-1">
          <mxGeometry x="5" y="110" width="10" height="740" as="geometry" />
        </mxCell>
        <mxCell id="2zl7KjaIhyBqIGTqFVHy-3" value="" style="shape=umlLifeline;perimeter=lifelinePerimeter;whiteSpace=wrap;html=1;container=1;dropTarget=0;collapsible=0;recursiveResize=0;outlineConnect=0;portConstraint=eastwest;newEdgeStyle={&quot;edgeStyle&quot;:&quot;elbowEdgeStyle&quot;,&quot;elbow&quot;:&quot;vertical&quot;,&quot;curved&quot;:0,&quot;rounded&quot;:0};participant=umlControl;" vertex="1" parent="1">
          <mxGeometry x="90" y="10" width="40" height="890" as="geometry" />
        </mxCell>
        <mxCell id="2zl7KjaIhyBqIGTqFVHy-5" value="\" style="shape=umlLifeline;perimeter=lifelinePerimeter;whiteSpace=wrap;html=1;container=1;dropTarget=0;collapsible=0;recursiveResize=0;outlineConnect=0;portConstraint=eastwest;newEdgeStyle={&quot;edgeStyle&quot;:&quot;elbowEdgeStyle&quot;,&quot;elbow&quot;:&quot;vertical&quot;,&quot;curved&quot;:0,&quot;rounded&quot;:0};participant=umlControl;" vertex="1" parent="1">
          <mxGeometry x="260" y="10" width="40" height="890" as="geometry" />
        </mxCell>
        <mxCell id="2zl7KjaIhyBqIGTqFVHy-6" value="" style="html=1;points=[];perimeter=orthogonalPerimeter;outlineConnect=0;targetShapes=umlLifeline;portConstraint=eastwest;newEdgeStyle={&quot;edgeStyle&quot;:&quot;elbowEdgeStyle&quot;,&quot;elbow&quot;:&quot;vertical&quot;,&quot;curved&quot;:0,&quot;rounded&quot;:0};" vertex="1" parent="2zl7KjaIhyBqIGTqFVHy-5">
          <mxGeometry x="15" y="430" width="10" height="320" as="geometry" />
        </mxCell>
        <mxCell id="2zl7KjaIhyBqIGTqFVHy-9" value="pracownik magazynu" style="text;html=1;align=center;verticalAlign=middle;resizable=0;points=[];autosize=1;strokeColor=none;fillColor=none;" vertex="1" parent="1">
          <mxGeometry x="-130" y="68" width="140" height="30" as="geometry" />
        </mxCell>
        <mxCell id="2zl7KjaIhyBqIGTqFVHy-10" value="raport" style="text;html=1;align=center;verticalAlign=middle;resizable=0;points=[];autosize=1;strokeColor=none;fillColor=none;" vertex="1" parent="1">
          <mxGeometry x="85" y="68" width="50" height="30" as="geometry" />
        </mxCell>
        <mxCell id="2zl7KjaIhyBqIGTqFVHy-11" value="magazyn" style="text;html=1;align=center;verticalAlign=middle;resizable=0;points=[];autosize=1;strokeColor=none;fillColor=none;" vertex="1" parent="1">
          <mxGeometry x="245" y="68" width="70" height="30" as="geometry" />
        </mxCell>
        <mxCell id="2zl7KjaIhyBqIGTqFVHy-13" value="baza danych&lt;br&gt;pracowników" style="text;html=1;align=center;verticalAlign=middle;resizable=0;points=[];autosize=1;strokeColor=none;fillColor=none;" vertex="1" parent="1">
          <mxGeometry x="605" y="63" width="90" height="40" as="geometry" />
        </mxCell>
        <mxCell id="2zl7KjaIhyBqIGTqFVHy-14" value="baza danych&lt;br&gt;produktów" style="text;html=1;align=center;verticalAlign=middle;resizable=0;points=[];autosize=1;strokeColor=none;fillColor=none;" vertex="1" parent="1">
          <mxGeometry x="410" y="63" width="90" height="40" as="geometry" />
        </mxCell>
        <mxCell id="2zl7KjaIhyBqIGTqFVHy-15" value="" style="shape=umlLifeline;perimeter=lifelinePerimeter;whiteSpace=wrap;html=1;container=1;dropTarget=0;collapsible=0;recursiveResize=0;outlineConnect=0;portConstraint=eastwest;newEdgeStyle={&quot;edgeStyle&quot;:&quot;elbowEdgeStyle&quot;,&quot;elbow&quot;:&quot;vertical&quot;,&quot;curved&quot;:0,&quot;rounded&quot;:0};participant=umlBoundary;" vertex="1" parent="1">
          <mxGeometry x="620" y="10" width="50" height="890" as="geometry" />
        </mxCell>
        <mxCell id="2zl7KjaIhyBqIGTqFVHy-16" value="" style="html=1;points=[];perimeter=orthogonalPerimeter;outlineConnect=0;targetShapes=umlLifeline;portConstraint=eastwest;newEdgeStyle={&quot;edgeStyle&quot;:&quot;elbowEdgeStyle&quot;,&quot;elbow&quot;:&quot;vertical&quot;,&quot;curved&quot;:0,&quot;rounded&quot;:0};" vertex="1" parent="2zl7KjaIhyBqIGTqFVHy-15">
          <mxGeometry x="20" y="160" width="10" height="230" as="geometry" />
        </mxCell>
        <mxCell id="2zl7KjaIhyBqIGTqFVHy-17" value="" style="shape=umlLifeline;perimeter=lifelinePerimeter;whiteSpace=wrap;html=1;container=1;dropTarget=0;collapsible=0;recursiveResize=0;outlineConnect=0;portConstraint=eastwest;newEdgeStyle={&quot;edgeStyle&quot;:&quot;elbowEdgeStyle&quot;,&quot;elbow&quot;:&quot;vertical&quot;,&quot;curved&quot;:0,&quot;rounded&quot;:0};participant=umlBoundary;" vertex="1" parent="1">
          <mxGeometry x="430" y="10" width="50" height="890" as="geometry" />
        </mxCell>
        <mxCell id="2zl7KjaIhyBqIGTqFVHy-18" value="" style="html=1;points=[];perimeter=orthogonalPerimeter;outlineConnect=0;targetShapes=umlLifeline;portConstraint=eastwest;newEdgeStyle={&quot;edgeStyle&quot;:&quot;elbowEdgeStyle&quot;,&quot;elbow&quot;:&quot;vertical&quot;,&quot;curved&quot;:0,&quot;rounded&quot;:0};" vertex="1" parent="2zl7KjaIhyBqIGTqFVHy-17">
          <mxGeometry x="20" y="520" width="10" height="190" as="geometry" />
        </mxCell>
        <mxCell id="2zl7KjaIhyBqIGTqFVHy-19" value="dane logowania są wprowadzane do bazy" style="html=1;verticalAlign=bottom;endArrow=block;edgeStyle=elbowEdgeStyle;elbow=vertical;curved=0;rounded=0;" edge="1" parent="1" target="2zl7KjaIhyBqIGTqFVHy-16">
          <mxGeometry x="0.0015" relative="1" as="geometry">
            <mxPoint x="-55" y="270" as="sourcePoint" />
            <Array as="points">
              <mxPoint x="-10" y="270" />
            </Array>
            <mxPoint as="offset" />
          </mxGeometry>
        </mxCell>
        <mxCell id="2zl7KjaIhyBqIGTqFVHy-20" value="system zwraca informacje, czy wprowadzone dane znajdują się w bazie" style="html=1;verticalAlign=bottom;endArrow=open;dashed=1;endSize=8;edgeStyle=elbowEdgeStyle;elbow=vertical;curved=0;rounded=0;" edge="1" parent="1" source="2zl7KjaIhyBqIGTqFVHy-16" target="2zl7KjaIhyBqIGTqFVHy-2">
          <mxGeometry relative="1" as="geometry">
            <mxPoint x="-50" y="300" as="targetPoint" />
            <Array as="points">
              <mxPoint x="550" y="300" />
            </Array>
          </mxGeometry>
        </mxCell>
        <mxCell id="2zl7KjaIhyBqIGTqFVHy-22" value="poprawne dane == false" style="text;html=1;align=center;verticalAlign=middle;resizable=0;points=[];autosize=1;strokeColor=none;fillColor=none;" vertex="1" parent="1">
          <mxGeometry x="-60" y="210" width="150" height="30" as="geometry" />
        </mxCell>
        <mxCell id="2zl7KjaIhyBqIGTqFVHy-25" value="alt" style="shape=umlFrame;whiteSpace=wrap;html=1;pointerEvents=0;" vertex="1" parent="1">
          <mxGeometry x="-150" y="150" width="1220" height="180" as="geometry" />
        </mxCell>
        <mxCell id="2zl7KjaIhyBqIGTqFVHy-26" value="zalogowany == false" style="text;html=1;align=center;verticalAlign=middle;resizable=0;points=[];autosize=1;strokeColor=none;fillColor=none;" vertex="1" parent="1">
          <mxGeometry x="-60" y="150" width="130" height="30" as="geometry" />
        </mxCell>
        <mxCell id="2zl7KjaIhyBqIGTqFVHy-28" value="wyświetl raport" style="html=1;verticalAlign=bottom;endArrow=open;dashed=1;endSize=8;edgeStyle=elbowEdgeStyle;elbow=vertical;curved=0;rounded=0;" edge="1" parent="1">
          <mxGeometry x="0.0625" relative="1" as="geometry">
            <mxPoint x="-55" y="830" as="targetPoint" />
            <mxPoint x="105" y="830" as="sourcePoint" />
            <Array as="points">
              <mxPoint x="70" y="830" />
              <mxPoint x="20" y="920" />
              <mxPoint x="40" y="780" />
              <mxPoint x="110" y="675" />
              <mxPoint x="-25" y="705" />
            </Array>
            <mxPoint as="offset" />
          </mxGeometry>
        </mxCell>
        <mxCell id="2zl7KjaIhyBqIGTqFVHy-29" value="wyszukaj produkt w bazie" style="html=1;verticalAlign=bottom;endArrow=block;edgeStyle=elbowEdgeStyle;elbow=vertical;curved=0;rounded=0;" edge="1" parent="1">
          <mxGeometry x="0.0347" relative="1" as="geometry">
            <mxPoint x="285" y="560" as="sourcePoint" />
            <Array as="points">
              <mxPoint x="330" y="560" />
              <mxPoint x="400" y="590" />
              <mxPoint x="350" y="510" />
            </Array>
            <mxPoint as="offset" />
            <mxPoint x="455" y="560" as="targetPoint" />
          </mxGeometry>
        </mxCell>
        <mxCell id="2zl7KjaIhyBqIGTqFVHy-30" value="zwróć specyfikację produktu" style="html=1;verticalAlign=bottom;endArrow=open;dashed=1;endSize=8;edgeStyle=elbowEdgeStyle;elbow=vertical;curved=0;rounded=0;" edge="1" parent="1" target="2zl7KjaIhyBqIGTqFVHy-6">
          <mxGeometry x="-0.0018" relative="1" as="geometry">
            <mxPoint x="280" y="670" as="targetPoint" />
            <Array as="points">
              <mxPoint x="395" y="670" />
              <mxPoint x="335" y="600" />
            </Array>
            <mxPoint as="offset" />
            <mxPoint x="445" y="670" as="sourcePoint" />
          </mxGeometry>
        </mxCell>
        <mxCell id="2zl7KjaIhyBqIGTqFVHy-31" value="sprawdź ilość zamówionych produktów" style="html=1;verticalAlign=bottom;endArrow=block;edgeStyle=elbowEdgeStyle;elbow=vertical;curved=0;rounded=0;" edge="1" parent="1">
          <mxGeometry relative="1" as="geometry">
            <mxPoint x="460" y="584" as="sourcePoint" />
            <Array as="points">
              <mxPoint x="617.5" y="584" />
              <mxPoint x="587.5" y="614" />
              <mxPoint x="700" y="534" />
            </Array>
            <mxPoint as="offset" />
            <mxPoint x="820" y="584" as="targetPoint" />
          </mxGeometry>
        </mxCell>
        <mxCell id="2zl7KjaIhyBqIGTqFVHy-35" value="baza danych&amp;nbsp;&lt;div&gt;zamówień&lt;/div&gt;" style="text;html=1;align=center;verticalAlign=middle;resizable=0;points=[];autosize=1;strokeColor=none;fillColor=none;" vertex="1" parent="1">
          <mxGeometry x="780" y="63" width="90" height="40" as="geometry" />
        </mxCell>
        <mxCell id="2zl7KjaIhyBqIGTqFVHy-36" value="loop" style="shape=umlFrame;whiteSpace=wrap;html=1;pointerEvents=0;" vertex="1" parent="1">
          <mxGeometry x="-130" y="500" width="1170" height="270" as="geometry" />
        </mxCell>
        <mxCell id="2zl7KjaIhyBqIGTqFVHy-37" value="każdy produkt został dodany do raportu == false" style="text;html=1;align=center;verticalAlign=middle;resizable=0;points=[];autosize=1;strokeColor=none;fillColor=none;" vertex="1" parent="1">
          <mxGeometry x="-60" y="500" width="280" height="30" as="geometry" />
        </mxCell>
        <mxCell id="2zl7KjaIhyBqIGTqFVHy-39" value="ilość sprzedanych sztuk" style="html=1;verticalAlign=bottom;endArrow=open;dashed=1;endSize=8;edgeStyle=elbowEdgeStyle;elbow=vertical;curved=0;rounded=0;" edge="1" parent="1" target="2zl7KjaIhyBqIGTqFVHy-18">
          <mxGeometry x="0.0275" relative="1" as="geometry">
            <mxPoint x="115" y="660" as="targetPoint" />
            <Array as="points">
              <mxPoint x="780" y="660" />
              <mxPoint x="930" y="660" />
              <mxPoint x="920" y="670" />
              <mxPoint x="870" y="620" />
              <mxPoint x="900" y="640" />
            </Array>
            <mxPoint x="820" y="650" as="sourcePoint" />
            <mxPoint as="offset" />
          </mxGeometry>
        </mxCell>
        <mxCell id="2zl7KjaIhyBqIGTqFVHy-47" value="loop" style="shape=umlFrame;whiteSpace=wrap;html=1;pointerEvents=0;" vertex="1" parent="1">
          <mxGeometry x="-140" y="210" width="1030" height="100" as="geometry" />
        </mxCell>
        <mxCell id="2zl7KjaIhyBqIGTqFVHy-59" value="" style="endArrow=open;endFill=1;endSize=12;html=1;rounded=0;" edge="1" parent="1" source="2zl7KjaIhyBqIGTqFVHy-15">
          <mxGeometry width="160" relative="1" as="geometry">
            <mxPoint x="230.55" y="370" as="sourcePoint" />
            <mxPoint x="-60" y="370" as="targetPoint" />
          </mxGeometry>
        </mxCell>
        <mxCell id="2zl7KjaIhyBqIGTqFVHy-60" value="zwrócenie informacji o posiadanych uprawnieniach" style="text;html=1;align=center;verticalAlign=middle;resizable=0;points=[];autosize=1;strokeColor=none;fillColor=none;" vertex="1" parent="1">
          <mxGeometry x="164" y="340" width="290" height="30" as="geometry" />
        </mxCell>
        <mxCell id="2zl7KjaIhyBqIGTqFVHy-61" value="alt" style="shape=umlFrame;whiteSpace=wrap;html=1;pointerEvents=0;" vertex="1" parent="1">
          <mxGeometry x="-150" y="410" width="1220" height="470" as="geometry" />
        </mxCell>
        <mxCell id="2zl7KjaIhyBqIGTqFVHy-62" value="użytkownik posiada odpowiednie uprawnienia == true" style="text;html=1;align=center;verticalAlign=middle;resizable=0;points=[];autosize=1;strokeColor=none;fillColor=none;" vertex="1" parent="1">
          <mxGeometry x="-95" y="410" width="310" height="30" as="geometry" />
        </mxCell>
        <mxCell id="2zl7KjaIhyBqIGTqFVHy-4" value="" style="html=1;points=[];perimeter=orthogonalPerimeter;outlineConnect=0;targetShapes=umlLifeline;portConstraint=eastwest;newEdgeStyle={&quot;edgeStyle&quot;:&quot;elbowEdgeStyle&quot;,&quot;elbow&quot;:&quot;vertical&quot;,&quot;curved&quot;:0,&quot;rounded&quot;:0};" vertex="1" parent="1">
          <mxGeometry x="105" y="560" width="10" height="290" as="geometry" />
        </mxCell>
        <mxCell id="2zl7KjaIhyBqIGTqFVHy-63" value="" style="shape=umlLifeline;perimeter=lifelinePerimeter;whiteSpace=wrap;html=1;container=1;dropTarget=0;collapsible=0;recursiveResize=0;outlineConnect=0;portConstraint=eastwest;newEdgeStyle={&quot;edgeStyle&quot;:&quot;elbowEdgeStyle&quot;,&quot;elbow&quot;:&quot;vertical&quot;,&quot;curved&quot;:0,&quot;rounded&quot;:0};participant=umlBoundary;size=40;" vertex="1" parent="1">
          <mxGeometry x="800" y="10" width="50" height="890" as="geometry" />
        </mxCell>
        <mxCell id="2zl7KjaIhyBqIGTqFVHy-64" value="" style="html=1;points=[];perimeter=orthogonalPerimeter;outlineConnect=0;targetShapes=umlLifeline;portConstraint=eastwest;newEdgeStyle={&quot;edgeStyle&quot;:&quot;elbowEdgeStyle&quot;,&quot;elbow&quot;:&quot;vertical&quot;,&quot;curved&quot;:0,&quot;rounded&quot;:0};" vertex="1" parent="2zl7KjaIhyBqIGTqFVHy-63">
          <mxGeometry x="20" y="520" width="10" height="157.5" as="geometry" />
        </mxCell>
        <mxCell id="2zl7KjaIhyBqIGTqFVHy-67" value="" style="endArrow=open;endFill=1;endSize=12;html=1;rounded=0;" edge="1" parent="1" source="2zl7KjaIhyBqIGTqFVHy-2" target="2zl7KjaIhyBqIGTqFVHy-6">
          <mxGeometry width="160" relative="1" as="geometry">
            <mxPoint x="369" y="480" as="sourcePoint" />
            <mxPoint x="-70" y="480" as="targetPoint" />
            <Array as="points">
              <mxPoint x="160" y="470" />
            </Array>
          </mxGeometry>
        </mxCell>
        <mxCell id="2zl7KjaIhyBqIGTqFVHy-68" value="wyświetl stan magazynu" style="text;html=1;align=center;verticalAlign=middle;resizable=0;points=[];autosize=1;strokeColor=none;fillColor=none;" vertex="1" parent="1">
          <mxGeometry x="35" y="448" width="150" height="30" as="geometry" />
        </mxCell>
        <mxCell id="2zl7KjaIhyBqIGTqFVHy-76" value="" style="endArrow=open;endFill=1;endSize=12;html=1;rounded=0;" edge="1" parent="1" target="2zl7KjaIhyBqIGTqFVHy-2">
          <mxGeometry width="160" relative="1" as="geometry">
            <mxPoint x="639.4999999999995" y="190" as="sourcePoint" />
            <mxPoint x="-20" y="190" as="targetPoint" />
          </mxGeometry>
        </mxCell>
        <mxCell id="2zl7KjaIhyBqIGTqFVHy-77" value="prośba o zalogowanie" style="text;html=1;align=center;verticalAlign=middle;resizable=0;points=[];autosize=1;strokeColor=none;fillColor=none;" vertex="1" parent="1">
          <mxGeometry x="305" y="168" width="140" height="30" as="geometry" />
        </mxCell>
        <mxCell id="2zl7KjaIhyBqIGTqFVHy-78" value="prośba o dane produktu" style="html=1;verticalAlign=bottom;endArrow=block;edgeStyle=elbowEdgeStyle;elbow=vertical;curved=0;rounded=0;" edge="1" parent="1">
          <mxGeometry x="0.0347" relative="1" as="geometry">
            <mxPoint x="115" y="700" as="sourcePoint" />
            <Array as="points">
              <mxPoint x="245" y="700" />
              <mxPoint x="315" y="730" />
              <mxPoint x="265" y="650" />
            </Array>
            <mxPoint as="offset" />
            <mxPoint x="275" y="700" as="targetPoint" />
          </mxGeometry>
        </mxCell>
        <mxCell id="2zl7KjaIhyBqIGTqFVHy-79" value="dodanie produktu do raportu" style="html=1;verticalAlign=bottom;endArrow=open;dashed=1;endSize=8;edgeStyle=elbowEdgeStyle;elbow=vertical;curved=0;rounded=0;" edge="1" parent="1">
          <mxGeometry x="-0.0018" relative="1" as="geometry">
            <mxPoint x="115" y="730" as="targetPoint" />
            <Array as="points">
              <mxPoint x="131.33" y="730" />
              <mxPoint x="71.33" y="660" />
            </Array>
            <mxPoint as="offset" />
            <mxPoint x="276.33" y="730" as="sourcePoint" />
          </mxGeometry>
        </mxCell>
        <mxCell id="2zl7KjaIhyBqIGTqFVHy-82" value="" style="endArrow=open;endFill=1;endSize=12;html=1;rounded=0;" edge="1" parent="1">
          <mxGeometry width="160" relative="1" as="geometry">
            <mxPoint x="-60.08647058823536" y="800" as="sourcePoint" />
            <mxPoint x="110.09" y="800" as="targetPoint" />
          </mxGeometry>
        </mxCell>
        <mxCell id="2zl7KjaIhyBqIGTqFVHy-85" value="&lt;span style=&quot;font-size: 11px; background-color: rgb(255, 255, 255);&quot;&gt;wygeneruj raport&lt;/span&gt;" style="text;html=1;align=center;verticalAlign=middle;resizable=0;points=[];autosize=1;strokeColor=none;fillColor=none;" vertex="1" parent="1">
          <mxGeometry x="-40" y="778" width="110" height="30" as="geometry" />
        </mxCell>
      </root>
    </mxGraphModel>
  </diagram>
</mxfile>
